<svg id="레이어_1" data-name="레이어 1" xmlns="http://www.w3.org/2000/svg" xmlns:xlink="http://www.w3.org/1999/xlink" viewBox="0 0 64 64"><defs><style>.cls-1{fill:#29b6f6;}.cls-2{fill:url(#무제_그라디언트_37);}</style><linearGradient id="무제_그라디언트_37" x1="32" y1="49.23" x2="32" gradientUnits="userSpaceOnUse"><stop offset="0" stop-color="#fff"/><stop offset="0.08" stop-color="#efefef"/><stop offset="0.2" stop-color="#dedede"/><stop offset="0.34" stop-color="#d1d1d1"/><stop offset="0.54" stop-color="#cacaca"/><stop offset="1" stop-color="#c8c8c8"/></linearGradient></defs><title>고객지원</title><path class="cls-1" d="M50.19,46.92l-10.1-5.7a3.9,3.9,0,0,1-2-3.4V35.1h0a11.57,11.57,0,0,0,5.23-9.65V21.83A11.59,11.59,0,0,0,31.76,10.27h0A11.6,11.6,0,0,0,20.19,21.83v3.61a11.58,11.58,0,0,0,5.23,9.66h0v2.72a3.91,3.91,0,0,1-2,3.4l-10.1,5.7A13.62,13.62,0,0,0,6.4,58.79V64H57.12V58.79A13.63,13.63,0,0,0,50.19,46.92Z"/><path class="cls-2" d="M58.81,26.59a9.81,9.81,0,0,0-6.27-9.14,21.12,21.12,0,0,0-41.63.23A9.81,9.81,0,0,0,12.8,36.16,1.77,1.77,0,0,0,15,34.45V17.3a17.18,17.18,0,0,1,33.93,3.84v6.45a1.92,1.92,0,0,0,.07.48v6.38a1.78,1.78,0,0,0,1,1.6,9.65,9.65,0,0,1-8.15,9A3.13,3.13,0,0,0,38.92,43H35.05a3.14,3.14,0,0,0-3.13,3.13h0a3.13,3.13,0,0,0,3.13,3.12h3.87a3.13,3.13,0,0,0,3-2.16A11.65,11.65,0,0,0,52,35.94,9.81,9.81,0,0,0,58.81,26.59Z"/></svg>